<svg id="Capa_1" enable-background="new 0 0 512 512" height="512" fill="#55adad" viewBox="0 0 512 512" width="512" xmlns="http://www.w3.org/2000/svg"><g><path d="m150 466c7.564 0 13.945-5.632 14.883-13.14l6.579-52.637c-17.569-3.01-34.878-7.841-51.462-14.995v65.772c0 8.284 6.716 15 15 15z"/><path d="m271 466h15c8.284 0 15-6.716 15-15v-65.771c-16.584 7.154-33.893 11.984-51.462 14.995l6.579 52.637c.938 7.507 7.319 13.139 14.883 13.139z"/><path d="m497.311 195.998c-50.198.154-70.088-36.727-76.297-48.836 0 0-.015-.015-.015-.029v-86.133c0-7.863-6.066-14.916-13.927-14.995-53.285-.536-97.658 38.835-105.003 89.995h-176.708c-31.143 0-59.83 11.31-81.982 29.672-7.476-.846-13.379-6.971-13.379-14.672 0-8.276 6.724-15 15-15 8.291 0 15-6.709 15-15s-6.709-15-15-15c-24.814 0-45 20.186-45 45 0 16.241 8.732 30.372 21.665 38.286-11.605 16.371-19.426 35.374-21.211 56.138-2.768 32.109 7.954 64.233 29.546 89.077v116.499c0 8.284 6.716 15 15 15h30c8.284 0 15-6.716 15-15v-90c0-11.587 12.426-18.739 22.489-12.997 60.152 34.33 135.87 34.33 196.022 0 10.063-5.742 22.489 1.373 22.489 12.96v82.042c0 16.357 6.716 22.994 15 22.994h30c8.284 0 15-6.716 15-15v-103.153c0-20.656 14.059-38.661 34.098-43.671l75.535-18.629c6.68-1.67 11.367-7.672 11.367-14.559v-59.987c0-8.148-6.541-15.026-14.689-15.002z"/></g></svg>